STARTFONT 2.1
FONT -FontForge-ITC Benguiat Gothic Std-Medium-R-Normal--10-100-75-75-P-51-ISO8859-1
SIZE 10 75 75
FONTBOUNDINGBOX 12 12 -2 -3
COMMENT "Generated by fontforge, http://fontforge.sourceforge.net"
COMMENT "Copyright 1990, 1995 , 2002Adobe Systems Incorporated. All Rights Reserved. ITC Benguiat Gothic is a registered trademark of International Typeface Corporation."
STARTPROPERTIES 40
FOUNDRY "FontForge"
FAMILY_NAME "ITC Benguiat Gothic Std"
WEIGHT_NAME "Medium"
SLANT "R"
SETWIDTH_NAME "Normal"
ADD_STYLE_NAME ""
PIXEL_SIZE 10
POINT_SIZE 100
RESOLUTION_X 75
RESOLUTION_Y 75
SPACING "P"
AVERAGE_WIDTH 51
CHARSET_REGISTRY "ISO8859"
CHARSET_ENCODING "1"
FONTNAME_REGISTRY ""
CHARSET_COLLECTIONS "ISOLatin1Encoding"
FONT_NAME "BenguiatGothicStd-Medium"
FACE_NAME "ITC Benguiat Gothic Std Medium"
COPYRIGHT "Copyright 1990, 1995 , 2002Adobe Systems Incorporated. All Rights Reserved. ITC Benguiat Gothic is a registered trademark of International Typeface Corporation."
FONT_VERSION "001.001"
FONT_ASCENT 7
FONT_DESCENT 3
UNDERLINE_POSITION -1
UNDERLINE_THICKNESS 1
X_HEIGHT 5
CAP_HEIGHT 6
RAW_ASCENT 691
RAW_DESCENT 309
NORM_SPACE 3
RELATIVE_WEIGHT 50
RELATIVE_SETWIDTH 50
SUPERSCRIPT_X 0
SUPERSCRIPT_Y 3
SUPERSCRIPT_SIZE 6
SUBSCRIPT_X 0
SUBSCRIPT_Y 0
SUBSCRIPT_SIZE 6
FIGURE_WIDTH 6
AVG_LOWERCASE_WIDTH 50
AVG_UPPERCASE_WIDTH 60
ENDPROPERTIES
CHARS 253
STARTCHAR space
ENCODING 32
SWIDTH 305 0
DWIDTH 3 0
BBX 1 1 0 0
BITMAP
00
ENDCHAR
STARTCHAR exclam
ENCODING 33
SWIDTH 278 0
DWIDTH 3 0
BBX 1 7 1 0
BITMAP
80
80
80
80
80
00
80
ENDCHAR
STARTCHAR quotedbl
ENCODING 34
SWIDTH 333 0
DWIDTH 3 0
BBX 2 3 1 4
BITMAP
C0
C0
40
ENDCHAR
STARTCHAR numbersign
ENCODING 35
SWIDTH 611 0
DWIDTH 6 0
BBX 5 7 1 0
BITMAP
50
50
F8
A0
F0
A0
A0
ENDCHAR
STARTCHAR dollar
ENCODING 36
SWIDTH 611 0
DWIDTH 6 0
BBX 5 8 0 -1
BITMAP
20
70
40
38
28
28
F0
20
ENDCHAR
STARTCHAR percent
ENCODING 37
SWIDTH 833 0
DWIDTH 8 0
BBX 7 7 1 0
BITMAP
C8
A8
D0
10
2C
32
4C
ENDCHAR
STARTCHAR ampersand
ENCODING 38
SWIDTH 778 0
DWIDTH 8 0
BBX 8 7 0 0
BITMAP
30
48
2C
52
8C
44
3B
ENDCHAR
STARTCHAR quotesingle
ENCODING 39
SWIDTH 222 0
DWIDTH 2 0
BBX 1 2 1 5
BITMAP
80
80
ENDCHAR
STARTCHAR parenleft
ENCODING 40
SWIDTH 389 0
DWIDTH 4 0
BBX 2 9 1 -2
BITMAP
40
80
80
80
80
80
80
80
40
ENDCHAR
STARTCHAR parenright
ENCODING 41
SWIDTH 389 0
DWIDTH 4 0
BBX 2 9 1 -2
BITMAP
80
80
40
40
40
40
40
80
80
ENDCHAR
STARTCHAR asterisk
ENCODING 42
SWIDTH 333 0
DWIDTH 3 0
BBX 3 3 0 4
BITMAP
40
E0
E0
ENDCHAR
STARTCHAR plus
ENCODING 43
SWIDTH 600 0
DWIDTH 6 0
BBX 6 6 0 0
BITMAP
20
20
20
FC
20
20
ENDCHAR
STARTCHAR comma
ENCODING 44
SWIDTH 305 0
DWIDTH 3 0
BBX 2 3 0 -1
BITMAP
40
40
80
ENDCHAR
STARTCHAR hyphen
ENCODING 45
SWIDTH 333 0
DWIDTH 3 0
BBX 3 1 0 2
BITMAP
E0
ENDCHAR
STARTCHAR period
ENCODING 46
SWIDTH 305 0
DWIDTH 3 0
BBX 1 1 1 0
BITMAP
80
ENDCHAR
STARTCHAR slash
ENCODING 47
SWIDTH 278 0
DWIDTH 3 0
BBX 3 7 0 0
BITMAP
20
20
40
40
80
80
80
ENDCHAR
STARTCHAR zero
ENCODING 48
SWIDTH 611 0
DWIDTH 6 0
BBX 6 7 0 0
BITMAP
30
48
84
84
84
48
30
ENDCHAR
STARTCHAR one
ENCODING 49
SWIDTH 611 0
DWIDTH 6 0
BBX 4 7 1 0
BITMAP
60
20
20
20
20
20
F0
ENDCHAR
STARTCHAR two
ENCODING 50
SWIDTH 611 0
DWIDTH 6 0
BBX 4 7 1 0
BITMAP
F0
10
10
20
C0
80
F0
ENDCHAR
STARTCHAR three
ENCODING 51
SWIDTH 611 0
DWIDTH 6 0
BBX 4 7 1 0
BITMAP
F0
60
E0
10
10
10
F0
ENDCHAR
STARTCHAR four
ENCODING 52
SWIDTH 611 0
DWIDTH 6 0
BBX 6 7 0 0
BITMAP
18
28
48
88
FC
08
08
ENDCHAR
STARTCHAR five
ENCODING 53
SWIDTH 611 0
DWIDTH 6 0
BBX 5 7 1 0
BITMAP
F0
80
E0
10
08
10
F0
ENDCHAR
STARTCHAR six
ENCODING 54
SWIDTH 611 0
DWIDTH 6 0
BBX 6 7 0 0
BITMAP
38
40
B8
C4
C4
44
38
ENDCHAR
STARTCHAR seven
ENCODING 55
SWIDTH 611 0
DWIDTH 6 0
BBX 4 7 1 0
BITMAP
F0
10
10
20
40
40
40
ENDCHAR
STARTCHAR eight
ENCODING 56
SWIDTH 611 0
DWIDTH 6 0
BBX 6 7 0 0
BITMAP
78
48
48
78
84
84
78
ENDCHAR
STARTCHAR nine
ENCODING 57
SWIDTH 611 0
DWIDTH 6 0
BBX 6 7 0 0
BITMAP
78
48
84
CC
74
08
78
ENDCHAR
STARTCHAR colon
ENCODING 58
SWIDTH 305 0
DWIDTH 3 0
BBX 1 4 1 0
BITMAP
80
00
00
80
ENDCHAR
STARTCHAR semicolon
ENCODING 59
SWIDTH 305 0
DWIDTH 3 0
BBX 2 5 0 -1
BITMAP
40
00
00
40
80
ENDCHAR
STARTCHAR less
ENCODING 60
SWIDTH 600 0
DWIDTH 6 0
BBX 5 6 1 0
BITMAP
08
30
C0
80
60
18
ENDCHAR
STARTCHAR equal
ENCODING 61
SWIDTH 600 0
DWIDTH 6 0
BBX 6 3 0 1
BITMAP
FC
00
FC
ENDCHAR
STARTCHAR greater
ENCODING 62
SWIDTH 600 0
DWIDTH 6 0
BBX 5 6 0 0
BITMAP
80
60
18
08
30
C0
ENDCHAR
STARTCHAR question
ENCODING 63
SWIDTH 500 0
DWIDTH 5 0
BBX 4 7 0 0
BITMAP
F0
10
10
20
40
00
40
ENDCHAR
STARTCHAR at
ENCODING 64
SWIDTH 800 0
DWIDTH 8 0
BBX 7 7 0 0
BITMAP
3C
5E
A6
A6
AA
54
3E
ENDCHAR
STARTCHAR A
ENCODING 65
SWIDTH 667 0
DWIDTH 7 0
BBX 6 7 0 0
BITMAP
10
28
48
74
4C
84
84
ENDCHAR
STARTCHAR B
ENCODING 66
SWIDTH 611 0
DWIDTH 6 0
BBX 5 7 1 0
BITMAP
F0
F0
90
88
88
88
F0
ENDCHAR
STARTCHAR C
ENCODING 67
SWIDTH 611 0
DWIDTH 6 0
BBX 6 7 0 0
BITMAP
7C
40
80
80
40
60
1C
ENDCHAR
STARTCHAR D
ENCODING 68
SWIDTH 667 0
DWIDTH 7 0
BBX 5 7 1 0
BITMAP
E0
90
88
88
88
88
F0
ENDCHAR
STARTCHAR E
ENCODING 69
SWIDTH 556 0
DWIDTH 6 0
BBX 4 7 1 0
BITMAP
F0
F0
80
80
80
80
F0
ENDCHAR
STARTCHAR F
ENCODING 70
SWIDTH 500 0
DWIDTH 5 0
BBX 4 7 1 0
BITMAP
F0
F0
80
80
80
80
80
ENDCHAR
STARTCHAR G
ENCODING 71
SWIDTH 667 0
DWIDTH 7 0
BBX 6 7 0 0
BITMAP
7C
9C
84
C4
44
64
1C
ENDCHAR
STARTCHAR H
ENCODING 72
SWIDTH 611 0
DWIDTH 6 0
BBX 4 7 1 0
BITMAP
90
F0
90
90
90
90
90
ENDCHAR
STARTCHAR I
ENCODING 73
SWIDTH 222 0
DWIDTH 2 0
BBX 1 7 1 0
BITMAP
80
80
80
80
80
80
80
ENDCHAR
STARTCHAR J
ENCODING 74
SWIDTH 444 0
DWIDTH 4 0
BBX 4 7 0 0
BITMAP
10
10
10
10
10
10
E0
ENDCHAR
STARTCHAR K
ENCODING 75
SWIDTH 611 0
DWIDTH 6 0
BBX 5 7 1 0
BITMAP
90
90
E0
90
90
88
88
ENDCHAR
STARTCHAR L
ENCODING 76
SWIDTH 444 0
DWIDTH 4 0
BBX 3 7 1 0
BITMAP
80
80
80
80
80
80
E0
ENDCHAR
STARTCHAR M
ENCODING 77
SWIDTH 722 0
DWIDTH 7 0
BBX 6 7 1 0
BITMAP
88
D8
D8
A8
88
84
84
ENDCHAR
STARTCHAR N
ENCODING 78
SWIDTH 611 0
DWIDTH 6 0
BBX 4 7 1 0
BITMAP
90
D0
B0
90
90
90
90
ENDCHAR
STARTCHAR O
ENCODING 79
SWIDTH 722 0
DWIDTH 7 0
BBX 7 7 0 0
BITMAP
38
44
42
82
42
44
38
ENDCHAR
STARTCHAR P
ENCODING 80
SWIDTH 556 0
DWIDTH 6 0
BBX 5 7 1 0
BITMAP
F0
88
B0
C0
80
80
80
ENDCHAR
STARTCHAR Q
ENCODING 81
SWIDTH 722 0
DWIDTH 7 0
BBX 7 8 0 -1
BITMAP
38
44
82
82
72
4C
38
06
ENDCHAR
STARTCHAR R
ENCODING 82
SWIDTH 667 0
DWIDTH 7 0
BBX 5 7 1 0
BITMAP
F8
F8
B0
88
88
88
88
ENDCHAR
STARTCHAR S
ENCODING 83
SWIDTH 611 0
DWIDTH 6 0
BBX 6 7 0 0
BITMAP
78
80
78
04
04
0C
F8
ENDCHAR
STARTCHAR T
ENCODING 84
SWIDTH 500 0
DWIDTH 5 0
BBX 5 7 0 0
BITMAP
F8
20
20
20
20
20
20
ENDCHAR
STARTCHAR U
ENCODING 85
SWIDTH 611 0
DWIDTH 6 0
BBX 6 7 0 0
BITMAP
48
48
88
84
84
4C
78
ENDCHAR
STARTCHAR V
ENCODING 86
SWIDTH 611 0
DWIDTH 6 0
BBX 6 7 0 0
BITMAP
84
84
48
48
48
30
30
ENDCHAR
STARTCHAR W
ENCODING 87
SWIDTH 833 0
DWIDTH 8 0
BBX 8 7 0 0
BITMAP
89
89
99
59
5A
66
26
ENDCHAR
STARTCHAR X
ENCODING 88
SWIDTH 611 0
DWIDTH 6 0
BBX 6 7 0 0
BITMAP
48
48
30
78
48
84
84
ENDCHAR
STARTCHAR Y
ENCODING 89
SWIDTH 556 0
DWIDTH 6 0
BBX 5 7 0 0
BITMAP
88
48
50
20
20
20
20
ENDCHAR
STARTCHAR Z
ENCODING 90
SWIDTH 500 0
DWIDTH 5 0
BBX 5 7 0 0
BITMAP
78
10
10
20
40
80
F8
ENDCHAR
STARTCHAR bracketleft
ENCODING 91
SWIDTH 389 0
DWIDTH 4 0
BBX 2 9 1 -2
BITMAP
C0
80
80
80
80
80
80
80
C0
ENDCHAR
STARTCHAR backslash
ENCODING 92
SWIDTH 278 0
DWIDTH 3 0
BBX 3 7 0 0
BITMAP
80
80
80
40
40
20
20
ENDCHAR
STARTCHAR bracketright
ENCODING 93
SWIDTH 389 0
DWIDTH 4 0
BBX 2 9 1 -2
BITMAP
C0
40
40
40
40
40
40
40
C0
ENDCHAR
STARTCHAR asciicircum
ENCODING 94
SWIDTH 600 0
DWIDTH 6 0
BBX 4 5 1 2
BITMAP
60
60
A0
90
90
ENDCHAR
STARTCHAR underscore
ENCODING 95
SWIDTH 500 0
DWIDTH 5 0
BBX 3 1 1 -1
BITMAP
E0
ENDCHAR
STARTCHAR grave
ENCODING 96
SWIDTH 222 0
DWIDTH 2 0
BBX 2 1 0 6
BITMAP
C0
ENDCHAR
STARTCHAR a
ENCODING 97
SWIDTH 500 0
DWIDTH 5 0
BBX 4 6 0 0
BITMAP
70
10
70
90
90
70
ENDCHAR
STARTCHAR b
ENCODING 98
SWIDTH 556 0
DWIDTH 6 0
BBX 4 6 1 0
BITMAP
E0
B0
90
90
90
E0
ENDCHAR
STARTCHAR c
ENCODING 99
SWIDTH 500 0
DWIDTH 5 0
BBX 5 6 0 0
BITMAP
78
40
80
80
40
38
ENDCHAR
STARTCHAR d
ENCODING 100
SWIDTH 556 0
DWIDTH 6 0
BBX 5 7 0 0
BITMAP
08
38
48
88
88
88
78
ENDCHAR
STARTCHAR e
ENCODING 101
SWIDTH 556 0
DWIDTH 6 0
BBX 5 6 0 0
BITMAP
70
48
F8
80
40
78
ENDCHAR
STARTCHAR f
ENCODING 102
SWIDTH 333 0
DWIDTH 3 0
BBX 4 7 0 0
BITMAP
70
E0
40
40
40
40
40
ENDCHAR
STARTCHAR g
ENCODING 103
SWIDTH 556 0
DWIDTH 6 0
BBX 6 8 0 -2
BITMAP
38
48
88
88
48
38
04
F8
ENDCHAR
STARTCHAR h
ENCODING 104
SWIDTH 556 0
DWIDTH 6 0
BBX 4 7 1 0
BITMAP
80
E0
90
90
90
90
90
ENDCHAR
STARTCHAR i
ENCODING 105
SWIDTH 222 0
DWIDTH 2 0
BBX 1 8 1 0
BITMAP
80
00
80
80
80
80
80
80
ENDCHAR
STARTCHAR j
ENCODING 106
SWIDTH 222 0
DWIDTH 2 0
BBX 4 10 -2 -2
BITMAP
10
00
10
10
10
10
10
10
10
E0
ENDCHAR
STARTCHAR k
ENCODING 107
SWIDTH 500 0
DWIDTH 5 0
BBX 4 7 1 0
BITMAP
80
A0
A0
E0
A0
90
90
ENDCHAR
STARTCHAR l
ENCODING 108
SWIDTH 222 0
DWIDTH 2 0
BBX 1 7 1 0
BITMAP
80
80
80
80
80
80
80
ENDCHAR
STARTCHAR m
ENCODING 109
SWIDTH 889 0
DWIDTH 9 0
BBX 7 6 1 0
BITMAP
EE
92
92
92
92
92
ENDCHAR
STARTCHAR n
ENCODING 110
SWIDTH 556 0
DWIDTH 6 0
BBX 4 6 1 0
BITMAP
E0
90
90
90
90
90
ENDCHAR
STARTCHAR o
ENCODING 111
SWIDTH 556 0
DWIDTH 6 0
BBX 5 6 0 0
BITMAP
70
48
88
88
48
70
ENDCHAR
STARTCHAR p
ENCODING 112
SWIDTH 556 0
DWIDTH 6 0
BBX 4 8 1 -2
BITMAP
E0
90
90
90
90
E0
80
80
ENDCHAR
STARTCHAR q
ENCODING 113
SWIDTH 556 0
DWIDTH 6 0
BBX 5 8 0 -2
BITMAP
38
48
88
88
48
78
08
08
ENDCHAR
STARTCHAR r
ENCODING 114
SWIDTH 333 0
DWIDTH 3 0
BBX 2 6 1 0
BITMAP
C0
80
80
80
80
80
ENDCHAR
STARTCHAR s
ENCODING 115
SWIDTH 500 0
DWIDTH 5 0
BBX 5 6 0 0
BITMAP
70
80
70
08
08
F0
ENDCHAR
STARTCHAR t
ENCODING 116
SWIDTH 333 0
DWIDTH 3 0
BBX 3 7 0 0
BITMAP
40
E0
40
40
40
40
60
ENDCHAR
STARTCHAR u
ENCODING 117
SWIDTH 556 0
DWIDTH 6 0
BBX 4 6 1 0
BITMAP
90
90
90
90
90
F0
ENDCHAR
STARTCHAR v
ENCODING 118
SWIDTH 500 0
DWIDTH 5 0
BBX 5 6 0 0
BITMAP
88
88
90
50
50
20
ENDCHAR
STARTCHAR w
ENCODING 119
SWIDTH 722 0
DWIDTH 7 0
BBX 7 6 0 0
BITMAP
92
92
92
AA
6C
64
ENDCHAR
STARTCHAR x
ENCODING 120
SWIDTH 500 0
DWIDTH 5 0
BBX 5 6 0 0
BITMAP
90
90
50
70
50
88
ENDCHAR
STARTCHAR y
ENCODING 121
SWIDTH 500 0
DWIDTH 5 0
BBX 5 8 0 -2
BITMAP
88
88
48
50
50
20
20
40
ENDCHAR
STARTCHAR z
ENCODING 122
SWIDTH 444 0
DWIDTH 4 0
BBX 4 6 0 0
BITMAP
F0
10
20
40
80
F0
ENDCHAR
STARTCHAR braceleft
ENCODING 123
SWIDTH 389 0
DWIDTH 4 0
BBX 3 10 0 -2
BITMAP
20
40
40
40
40
C0
40
40
40
60
ENDCHAR
STARTCHAR bar
ENCODING 124
SWIDTH 222 0
DWIDTH 2 0
BBX 1 10 1 -3
BITMAP
80
80
80
80
80
80
80
80
80
80
ENDCHAR
STARTCHAR braceright
ENCODING 125
SWIDTH 389 0
DWIDTH 4 0
BBX 3 10 0 -2
BITMAP
C0
20
20
20
20
20
20
20
20
C0
ENDCHAR
STARTCHAR asciitilde
ENCODING 126
SWIDTH 600 0
DWIDTH 6 0
BBX 4 1 1 2
BITMAP
F0
ENDCHAR
STARTCHAR uni00A0
ENCODING 160
SWIDTH 305 0
DWIDTH 3 0
BBX 1 1 0 0
BITMAP
00
ENDCHAR
STARTCHAR exclamdown
ENCODING 161
SWIDTH 278 0
DWIDTH 3 0
BBX 1 7 1 -2
BITMAP
80
00
80
80
80
80
80
ENDCHAR
STARTCHAR cent
ENCODING 162
SWIDTH 611 0
DWIDTH 6 0
BBX 4 7 1 0
BITMAP
20
70
A0
A0
A0
70
20
ENDCHAR
STARTCHAR sterling
ENCODING 163
SWIDTH 611 0
DWIDTH 6 0
BBX 5 7 0 0
BITMAP
18
20
20
78
20
20
F8
ENDCHAR
STARTCHAR currency
ENCODING 164
SWIDTH 611 0
DWIDTH 6 0
BBX 5 5 1 1
BITMAP
F8
90
88
90
F0
ENDCHAR
STARTCHAR yen
ENCODING 165
SWIDTH 611 0
DWIDTH 6 0
BBX 6 7 0 0
BITMAP
84
48
FC
30
78
20
20
ENDCHAR
STARTCHAR brokenbar
ENCODING 166
SWIDTH 222 0
DWIDTH 2 0
BBX 1 8 1 -2
BITMAP
80
80
80
00
00
80
80
80
ENDCHAR
STARTCHAR section
ENCODING 167
SWIDTH 500 0
DWIDTH 5 0
BBX 5 7 0 0
BITMAP
70
40
F0
48
30
10
F0
ENDCHAR
STARTCHAR dieresis
ENCODING 168
SWIDTH 222 0
DWIDTH 2 0
BBX 4 1 -1 6
BITMAP
D0
ENDCHAR
STARTCHAR copyright
ENCODING 169
SWIDTH 800 0
DWIDTH 8 0
BBX 7 7 0 0
BITMAP
3C
5A
A6
A2
A6
5A
3C
ENDCHAR
STARTCHAR ordfeminine
ENCODING 170
SWIDTH 300 0
DWIDTH 3 0
BBX 3 4 0 3
BITMAP
E0
20
E0
E0
ENDCHAR
STARTCHAR guillemotleft
ENCODING 171
SWIDTH 444 0
DWIDTH 4 0
BBX 4 4 0 1
BITMAP
50
60
A0
50
ENDCHAR
STARTCHAR logicalnot
ENCODING 172
SWIDTH 600 0
DWIDTH 6 0
BBX 6 3 0 1
BITMAP
FC
04
04
ENDCHAR
STARTCHAR uni00AD
ENCODING 173
SWIDTH 333 0
DWIDTH 3 0
BBX 3 1 0 2
BITMAP
E0
ENDCHAR
STARTCHAR registered
ENCODING 174
SWIDTH 800 0
DWIDTH 8 0
BBX 7 7 0 0
BITMAP
3C
5A
A6
9A
AA
42
3C
ENDCHAR
STARTCHAR macron
ENCODING 175
SWIDTH 222 0
DWIDTH 2 0
BBX 2 1 0 6
BITMAP
C0
ENDCHAR
STARTCHAR degree
ENCODING 176
SWIDTH 400 0
DWIDTH 4 0
BBX 2 3 1 4
BITMAP
C0
C0
C0
ENDCHAR
STARTCHAR plusminus
ENCODING 177
SWIDTH 600 0
DWIDTH 6 0
BBX 6 6 0 0
BITMAP
20
FC
20
00
00
FC
ENDCHAR
STARTCHAR twosuperior
ENCODING 178
SWIDTH 366 0
DWIDTH 4 0
BBX 3 5 0 2
BITMAP
E0
20
60
80
E0
ENDCHAR
STARTCHAR threesuperior
ENCODING 179
SWIDTH 366 0
DWIDTH 4 0
BBX 3 5 0 2
BITMAP
E0
40
20
20
E0
ENDCHAR
STARTCHAR acute
ENCODING 180
SWIDTH 222 0
DWIDTH 2 0
BBX 2 1 0 6
BITMAP
C0
ENDCHAR
STARTCHAR mu
ENCODING 181
SWIDTH 556 0
DWIDTH 6 0
BBX 4 8 1 -2
BITMAP
90
90
90
90
90
F0
80
80
ENDCHAR
STARTCHAR paragraph
ENCODING 182
SWIDTH 600 0
DWIDTH 6 0
BBX 5 7 0 0
BITMAP
78
E8
68
68
28
28
28
ENDCHAR
STARTCHAR periodcentered
ENCODING 183
SWIDTH 305 0
DWIDTH 3 0
BBX 1 1 1 2
BITMAP
80
ENDCHAR
STARTCHAR cedilla
ENCODING 184
SWIDTH 222 0
DWIDTH 2 0
BBX 1 1 1 -2
BITMAP
80
ENDCHAR
STARTCHAR onesuperior
ENCODING 185
SWIDTH 366 0
DWIDTH 4 0
BBX 2 5 1 2
BITMAP
80
80
80
80
C0
ENDCHAR
STARTCHAR ordmasculine
ENCODING 186
SWIDTH 334 0
DWIDTH 3 0
BBX 3 4 0 3
BITMAP
60
A0
A0
60
ENDCHAR
STARTCHAR guillemotright
ENCODING 187
SWIDTH 444 0
DWIDTH 4 0
BBX 3 4 1 1
BITMAP
40
A0
A0
C0
ENDCHAR
STARTCHAR onequarter
ENCODING 188
SWIDTH 916 0
DWIDTH 9 0
BBX 7 7 1 0
BITMAP
84
88
88
92
E6
2A
46
ENDCHAR
STARTCHAR onehalf
ENCODING 189
SWIDTH 916 0
DWIDTH 9 0
BBX 8 7 0 0
BITMAP
C2
44
48
4B
71
21
27
ENDCHAR
STARTCHAR threequarters
ENCODING 190
SWIDTH 916 0
DWIDTH 9 0
BBX 8 7 0 0
BITMAP
62
42
24
19
F3
15
23
ENDCHAR
STARTCHAR questiondown
ENCODING 191
SWIDTH 500 0
DWIDTH 5 0
BBX 4 7 1 -2
BITMAP
20
00
20
40
80
80
F0
ENDCHAR
STARTCHAR Agrave
ENCODING 192
SWIDTH 667 0
DWIDTH 7 0
BBX 6 9 0 0
BITMAP
20
18
10
28
48
74
4C
84
84
ENDCHAR
STARTCHAR Aacute
ENCODING 193
SWIDTH 667 0
DWIDTH 7 0
BBX 6 9 0 0
BITMAP
08
30
10
28
48
74
4C
84
84
ENDCHAR
STARTCHAR Acircumflex
ENCODING 194
SWIDTH 667 0
DWIDTH 7 0
BBX 6 9 0 0
BITMAP
10
28
10
28
48
74
4C
84
84
ENDCHAR
STARTCHAR Atilde
ENCODING 195
SWIDTH 667 0
DWIDTH 7 0
BBX 6 9 0 0
BITMAP
38
00
10
28
48
74
4C
84
84
ENDCHAR
STARTCHAR Adieresis
ENCODING 196
SWIDTH 667 0
DWIDTH 7 0
BBX 6 9 0 0
BITMAP
28
00
10
28
48
74
4C
84
84
ENDCHAR
STARTCHAR Aring
ENCODING 197
SWIDTH 667 0
DWIDTH 7 0
BBX 6 9 0 0
BITMAP
30
00
10
28
48
74
4C
84
84
ENDCHAR
STARTCHAR AE
ENCODING 198
SWIDTH 944 0
DWIDTH 9 0
BBX 9 7 0 0
BITMAP
0F80
3F80
5400
6400
4400
8400
8780
ENDCHAR
STARTCHAR Ccedilla
ENCODING 199
SWIDTH 611 0
DWIDTH 6 0
BBX 6 9 0 -2
BITMAP
7C
40
80
80
40
60
1C
10
38
ENDCHAR
STARTCHAR Egrave
ENCODING 200
SWIDTH 556 0
DWIDTH 6 0
BBX 4 9 1 0
BITMAP
40
20
F0
F0
80
80
80
80
F0
ENDCHAR
STARTCHAR Eacute
ENCODING 201
SWIDTH 556 0
DWIDTH 6 0
BBX 4 9 1 0
BITMAP
20
40
F0
F0
80
80
80
80
F0
ENDCHAR
STARTCHAR Ecircumflex
ENCODING 202
SWIDTH 556 0
DWIDTH 6 0
BBX 4 9 1 0
BITMAP
60
80
F0
F0
80
80
80
80
F0
ENDCHAR
STARTCHAR Edieresis
ENCODING 203
SWIDTH 556 0
DWIDTH 6 0
BBX 4 9 1 0
BITMAP
A0
00
F0
F0
80
80
80
80
F0
ENDCHAR
STARTCHAR Igrave
ENCODING 204
SWIDTH 222 0
DWIDTH 2 0
BBX 2 9 0 0
BITMAP
80
40
40
40
40
40
40
40
40
ENDCHAR
STARTCHAR Iacute
ENCODING 205
SWIDTH 222 0
DWIDTH 2 0
BBX 2 9 0 0
BITMAP
40
80
40
40
40
40
40
40
40
ENDCHAR
STARTCHAR Icircumflex
ENCODING 206
SWIDTH 222 0
DWIDTH 2 0
BBX 3 9 0 0
BITMAP
C0
20
40
40
40
40
40
40
40
ENDCHAR
STARTCHAR Idieresis
ENCODING 207
SWIDTH 222 0
DWIDTH 2 0
BBX 4 9 -1 0
BITMAP
D0
00
20
20
20
20
20
20
20
ENDCHAR
STARTCHAR Eth
ENCODING 208
SWIDTH 667 0
DWIDTH 7 0
BBX 6 7 0 0
BITMAP
70
48
44
E4
44
44
78
ENDCHAR
STARTCHAR Ntilde
ENCODING 209
SWIDTH 611 0
DWIDTH 6 0
BBX 4 9 1 0
BITMAP
70
80
90
D0
B0
90
90
90
90
ENDCHAR
STARTCHAR Ograve
ENCODING 210
SWIDTH 722 0
DWIDTH 7 0
BBX 7 9 0 0
BITMAP
20
18
38
44
42
82
42
44
38
ENDCHAR
STARTCHAR Oacute
ENCODING 211
SWIDTH 722 0
DWIDTH 7 0
BBX 7 9 0 0
BITMAP
08
30
38
44
42
82
42
44
38
ENDCHAR
STARTCHAR Ocircumflex
ENCODING 212
SWIDTH 722 0
DWIDTH 7 0
BBX 7 9 0 0
BITMAP
10
28
38
44
42
82
42
44
38
ENDCHAR
STARTCHAR Otilde
ENCODING 213
SWIDTH 722 0
DWIDTH 7 0
BBX 7 9 0 0
BITMAP
38
00
38
44
42
82
42
44
38
ENDCHAR
STARTCHAR Odieresis
ENCODING 214
SWIDTH 722 0
DWIDTH 7 0
BBX 7 9 0 0
BITMAP
28
00
38
44
42
82
42
44
38
ENDCHAR
STARTCHAR multiply
ENCODING 215
SWIDTH 600 0
DWIDTH 6 0
BBX 5 6 0 0
BITMAP
88
48
30
30
48
88
ENDCHAR
STARTCHAR Oslash
ENCODING 216
SWIDTH 722 0
DWIDTH 7 0
BBX 7 9 0 -1
BITMAP
04
38
4C
52
92
62
64
38
40
ENDCHAR
STARTCHAR Ugrave
ENCODING 217
SWIDTH 611 0
DWIDTH 6 0
BBX 6 9 0 0
BITMAP
20
10
48
48
88
84
84
4C
78
ENDCHAR
STARTCHAR Uacute
ENCODING 218
SWIDTH 611 0
DWIDTH 6 0
BBX 6 9 0 0
BITMAP
10
20
48
48
88
84
84
4C
78
ENDCHAR
STARTCHAR Ucircumflex
ENCODING 219
SWIDTH 611 0
DWIDTH 6 0
BBX 6 9 0 0
BITMAP
30
00
48
48
88
84
84
4C
78
ENDCHAR
STARTCHAR Udieresis
ENCODING 220
SWIDTH 611 0
DWIDTH 6 0
BBX 6 9 0 0
BITMAP
68
00
48
48
88
84
84
4C
78
ENDCHAR
STARTCHAR Yacute
ENCODING 221
SWIDTH 556 0
DWIDTH 6 0
BBX 5 9 0 0
BITMAP
10
20
88
48
50
20
20
20
20
ENDCHAR
STARTCHAR Thorn
ENCODING 222
SWIDTH 556 0
DWIDTH 6 0
BBX 5 7 1 0
BITMAP
80
F0
88
90
E0
80
80
ENDCHAR
STARTCHAR germandbls
ENCODING 223
SWIDTH 556 0
DWIDTH 6 0
BBX 5 7 0 0
BITMAP
70
E0
60
58
48
48
78
ENDCHAR
STARTCHAR agrave
ENCODING 224
SWIDTH 500 0
DWIDTH 5 0
BBX 4 8 0 0
BITMAP
60
00
70
10
70
90
90
70
ENDCHAR
STARTCHAR aacute
ENCODING 225
SWIDTH 500 0
DWIDTH 5 0
BBX 4 8 0 0
BITMAP
30
00
70
10
70
90
90
70
ENDCHAR
STARTCHAR acircumflex
ENCODING 226
SWIDTH 500 0
DWIDTH 5 0
BBX 4 8 0 0
BITMAP
20
50
70
10
70
90
90
70
ENDCHAR
STARTCHAR atilde
ENCODING 227
SWIDTH 500 0
DWIDTH 5 0
BBX 4 8 0 0
BITMAP
70
00
70
10
70
90
90
70
ENDCHAR
STARTCHAR adieresis
ENCODING 228
SWIDTH 500 0
DWIDTH 5 0
BBX 4 8 0 0
BITMAP
50
00
70
10
70
90
90
70
ENDCHAR
STARTCHAR aring
ENCODING 229
SWIDTH 500 0
DWIDTH 5 0
BBX 4 8 0 0
BITMAP
60
00
70
10
70
90
90
70
ENDCHAR
STARTCHAR ae
ENCODING 230
SWIDTH 833 0
DWIDTH 8 0
BBX 8 6 0 0
BITMAP
7E
19
7F
90
98
7F
ENDCHAR
STARTCHAR ccedilla
ENCODING 231
SWIDTH 500 0
DWIDTH 5 0
BBX 5 8 0 -2
BITMAP
78
40
80
80
40
38
20
10
ENDCHAR
STARTCHAR egrave
ENCODING 232
SWIDTH 556 0
DWIDTH 6 0
BBX 5 8 0 0
BITMAP
60
10
70
48
F8
80
40
78
ENDCHAR
STARTCHAR eacute
ENCODING 233
SWIDTH 556 0
DWIDTH 6 0
BBX 5 8 0 0
BITMAP
10
20
70
48
F8
80
40
78
ENDCHAR
STARTCHAR ecircumflex
ENCODING 234
SWIDTH 556 0
DWIDTH 6 0
BBX 5 8 0 0
BITMAP
30
40
70
48
F8
80
40
78
ENDCHAR
STARTCHAR edieresis
ENCODING 235
SWIDTH 556 0
DWIDTH 6 0
BBX 5 8 0 0
BITMAP
50
00
70
48
F8
80
40
78
ENDCHAR
STARTCHAR igrave
ENCODING 236
SWIDTH 222 0
DWIDTH 2 0
BBX 2 8 0 0
BITMAP
80
40
40
40
40
40
40
40
ENDCHAR
STARTCHAR iacute
ENCODING 237
SWIDTH 222 0
DWIDTH 2 0
BBX 2 8 0 0
BITMAP
40
80
40
40
40
40
40
40
ENDCHAR
STARTCHAR icircumflex
ENCODING 238
SWIDTH 222 0
DWIDTH 2 0
BBX 3 8 0 0
BITMAP
C0
20
40
40
40
40
40
40
ENDCHAR
STARTCHAR idieresis
ENCODING 239
SWIDTH 222 0
DWIDTH 2 0
BBX 2 8 1 0
BITMAP
40
00
80
80
80
80
80
80
ENDCHAR
STARTCHAR eth
ENCODING 240
SWIDTH 556 0
DWIDTH 6 0
BBX 5 7 0 0
BITMAP
70
10
78
48
88
48
70
ENDCHAR
STARTCHAR ntilde
ENCODING 241
SWIDTH 556 0
DWIDTH 6 0
BBX 4 8 1 0
BITMAP
60
00
E0
90
90
90
90
90
ENDCHAR
STARTCHAR ograve
ENCODING 242
SWIDTH 556 0
DWIDTH 6 0
BBX 5 8 0 0
BITMAP
60
10
70
48
88
88
48
70
ENDCHAR
STARTCHAR oacute
ENCODING 243
SWIDTH 556 0
DWIDTH 6 0
BBX 5 8 0 0
BITMAP
30
00
70
48
88
88
48
70
ENDCHAR
STARTCHAR ocircumflex
ENCODING 244
SWIDTH 556 0
DWIDTH 6 0
BBX 5 8 0 0
BITMAP
30
40
70
48
88
88
48
70
ENDCHAR
STARTCHAR otilde
ENCODING 245
SWIDTH 556 0
DWIDTH 6 0
BBX 5 8 0 0
BITMAP
30
00
70
48
88
88
48
70
ENDCHAR
STARTCHAR odieresis
ENCODING 246
SWIDTH 556 0
DWIDTH 6 0
BBX 5 8 0 0
BITMAP
50
00
70
48
88
88
48
70
ENDCHAR
STARTCHAR divide
ENCODING 247
SWIDTH 600 0
DWIDTH 6 0
BBX 6 5 0 0
BITMAP
30
00
FC
00
30
ENDCHAR
STARTCHAR oslash
ENCODING 248
SWIDTH 556 0
DWIDTH 6 0
BBX 5 8 0 -1
BITMAP
08
70
58
A8
A8
68
70
40
ENDCHAR
STARTCHAR ugrave
ENCODING 249
SWIDTH 556 0
DWIDTH 6 0
BBX 4 8 1 0
BITMAP
C0
20
90
90
90
90
90
F0
ENDCHAR
STARTCHAR uacute
ENCODING 250
SWIDTH 556 0
DWIDTH 6 0
BBX 4 8 1 0
BITMAP
60
00
90
90
90
90
90
F0
ENDCHAR
STARTCHAR ucircumflex
ENCODING 251
SWIDTH 556 0
DWIDTH 6 0
BBX 4 8 1 0
BITMAP
60
80
90
90
90
90
90
F0
ENDCHAR
STARTCHAR udieresis
ENCODING 252
SWIDTH 556 0
DWIDTH 6 0
BBX 4 8 1 0
BITMAP
A0
00
90
90
90
90
90
F0
ENDCHAR
STARTCHAR yacute
ENCODING 253
SWIDTH 500 0
DWIDTH 5 0
BBX 5 10 0 -2
BITMAP
30
00
88
88
48
50
50
20
20
40
ENDCHAR
STARTCHAR thorn
ENCODING 254
SWIDTH 556 0
DWIDTH 6 0
BBX 4 9 1 -2
BITMAP
80
E0
90
90
90
90
E0
80
80
ENDCHAR
STARTCHAR ydieresis
ENCODING 255
SWIDTH 500 0
DWIDTH 5 0
BBX 5 10 0 -2
BITMAP
50
00
88
88
48
50
50
20
20
40
ENDCHAR
STARTCHAR .notdef
ENCODING -1
SWIDTH 500 0
DWIDTH 5 0
BBX 5 7 0 0
BITMAP
F8
88
F8
A8
E8
98
F8
ENDCHAR
STARTCHAR quoteright
ENCODING -1
SWIDTH 222 0
DWIDTH 2 0
BBX 2 3 0 4
BITMAP
40
80
80
ENDCHAR
STARTCHAR quoteleft
ENCODING -1
SWIDTH 222 0
DWIDTH 2 0
BBX 2 3 0 4
BITMAP
80
40
40
ENDCHAR
STARTCHAR fraction
ENCODING -1
SWIDTH 167 0
DWIDTH 2 0
BBX 5 7 -2 0
BITMAP
08
08
10
20
20
40
80
ENDCHAR
STARTCHAR florin
ENCODING -1
SWIDTH 611 0
DWIDTH 6 0
BBX 6 9 0 -2
BITMAP
0C
10
10
78
20
20
20
20
C0
ENDCHAR
STARTCHAR quotedblleft
ENCODING -1
SWIDTH 389 0
DWIDTH 4 0
BBX 3 3 0 4
BITMAP
A0
60
40
ENDCHAR
STARTCHAR guilsinglleft
ENCODING -1
SWIDTH 278 0
DWIDTH 3 0
BBX 1 4 1 1
BITMAP
80
80
80
80
ENDCHAR
STARTCHAR guilsinglright
ENCODING -1
SWIDTH 278 0
DWIDTH 3 0
BBX 1 3 1 1
BITMAP
80
80
80
ENDCHAR
STARTCHAR fi
ENCODING -1
SWIDTH 500 0
DWIDTH 5 0
BBX 4 7 0 0
BITMAP
70
F0
50
50
50
50
50
ENDCHAR
STARTCHAR fl
ENCODING -1
SWIDTH 500 0
DWIDTH 5 0
BBX 4 7 0 0
BITMAP
70
F0
50
50
50
50
50
ENDCHAR
STARTCHAR endash
ENCODING -1
SWIDTH 500 0
DWIDTH 5 0
BBX 5 1 0 2
BITMAP
F8
ENDCHAR
STARTCHAR dagger
ENCODING -1
SWIDTH 389 0
DWIDTH 4 0
BBX 3 7 0 0
BITMAP
40
40
E0
40
40
40
40
ENDCHAR
STARTCHAR daggerdbl
ENCODING -1
SWIDTH 389 0
DWIDTH 4 0
BBX 3 7 0 0
BITMAP
40
40
E0
40
E0
40
40
ENDCHAR
STARTCHAR bullet
ENCODING -1
SWIDTH 500 0
DWIDTH 5 0
BBX 3 3 1 2
BITMAP
E0
E0
E0
ENDCHAR
STARTCHAR quotesinglbase
ENCODING -1
SWIDTH 222 0
DWIDTH 2 0
BBX 2 3 0 -1
BITMAP
40
40
80
ENDCHAR
STARTCHAR quotedblbase
ENCODING -1
SWIDTH 389 0
DWIDTH 4 0
BBX 3 3 0 -1
BITMAP
40
60
A0
ENDCHAR
STARTCHAR quotedblright
ENCODING -1
SWIDTH 389 0
DWIDTH 4 0
BBX 3 3 0 4
BITMAP
60
A0
A0
ENDCHAR
STARTCHAR ellipsis
ENCODING -1
SWIDTH 1000 0
DWIDTH 10 0
BBX 8 1 1 0
BITMAP
91
ENDCHAR
STARTCHAR perthousand
ENCODING -1
SWIDTH 1000 0
DWIDTH 10 0
BBX 10 7 0 0
BITMAP
E800
A800
F000
1000
2DC0
3340
4DC0
ENDCHAR
STARTCHAR circumflex
ENCODING -1
SWIDTH 222 0
DWIDTH 2 0
BBX 3 2 0 5
BITMAP
C0
20
ENDCHAR
STARTCHAR tilde
ENCODING -1
SWIDTH 222 0
DWIDTH 2 0
BBX 3 1 0 6
BITMAP
E0
ENDCHAR
STARTCHAR breve
ENCODING -1
SWIDTH 222 0
DWIDTH 2 0
BBX 3 2 0 5
BITMAP
20
C0
ENDCHAR
STARTCHAR dotaccent
ENCODING -1
SWIDTH 222 0
DWIDTH 2 0
BBX 1 1 1 6
BITMAP
80
ENDCHAR
STARTCHAR ring
ENCODING -1
SWIDTH 222 0
DWIDTH 2 0
BBX 2 1 0 6
BITMAP
C0
ENDCHAR
STARTCHAR hungarumlaut
ENCODING -1
SWIDTH 222 0
DWIDTH 2 0
BBX 4 2 -1 5
BITMAP
50
A0
ENDCHAR
STARTCHAR ogonek
ENCODING -1
SWIDTH 222 0
DWIDTH 2 0
BBX 2 2 0 -2
BITMAP
80
C0
ENDCHAR
STARTCHAR caron
ENCODING -1
SWIDTH 222 0
DWIDTH 2 0
BBX 2 1 0 6
BITMAP
C0
ENDCHAR
STARTCHAR emdash
ENCODING -1
SWIDTH 1000 0
DWIDTH 10 0
BBX 10 1 0 2
BITMAP
FFC0
ENDCHAR
STARTCHAR Lslash
ENCODING -1
SWIDTH 444 0
DWIDTH 4 0
BBX 4 7 0 0
BITMAP
40
40
60
C0
40
40
70
ENDCHAR
STARTCHAR OE
ENCODING -1
SWIDTH 1000 0
DWIDTH 10 0
BBX 10 7 0 0
BITMAP
7FC0
47C0
8400
8400
C400
4400
3FC0
ENDCHAR
STARTCHAR dotlessi
ENCODING -1
SWIDTH 222 0
DWIDTH 2 0
BBX 1 6 1 0
BITMAP
80
80
80
80
80
80
ENDCHAR
STARTCHAR lslash
ENCODING -1
SWIDTH 222 0
DWIDTH 2 0
BBX 2 7 0 0
BITMAP
40
40
40
C0
40
40
40
ENDCHAR
STARTCHAR oe
ENCODING -1
SWIDTH 944 0
DWIDTH 9 0
BBX 9 6 0 0
BITMAP
7700
4880
8F80
8800
4800
7780
ENDCHAR
STARTCHAR trademark
ENCODING -1
SWIDTH 990 0
DWIDTH 10 0
BBX 8 5 1 2
BITMAP
E9
5B
57
57
55
ENDCHAR
STARTCHAR minus
ENCODING -1
SWIDTH 600 0
DWIDTH 6 0
BBX 6 1 0 2
BITMAP
FC
ENDCHAR
STARTCHAR Scaron
ENCODING -1
SWIDTH 611 0
DWIDTH 6 0
BBX 6 9 0 0
BITMAP
30
00
78
80
78
04
04
0C
F8
ENDCHAR
STARTCHAR Ydieresis
ENCODING -1
SWIDTH 556 0
DWIDTH 6 0
BBX 5 9 0 0
BITMAP
58
00
88
48
50
20
20
20
20
ENDCHAR
STARTCHAR Zcaron
ENCODING -1
SWIDTH 500 0
DWIDTH 5 0
BBX 5 9 0 0
BITMAP
50
20
78
10
10
20
40
80
F8
ENDCHAR
STARTCHAR scaron
ENCODING -1
SWIDTH 500 0
DWIDTH 5 0
BBX 5 8 0 0
BITMAP
50
20
70
80
70
08
08
F0
ENDCHAR
STARTCHAR zcaron
ENCODING -1
SWIDTH 444 0
DWIDTH 4 0
BBX 4 8 0 0
BITMAP
60
00
F0
10
20
40
80
F0
ENDCHAR
STARTCHAR Delta
ENCODING -1
SWIDTH 707 0
DWIDTH 7 0
BBX 7 7 0 0
BITMAP
10
28
28
48
44
44
FE
ENDCHAR
STARTCHAR Omega
ENCODING -1
SWIDTH 795 0
DWIDTH 8 0
BBX 6 7 1 0
BITMAP
78
84
84
84
84
84
CC
ENDCHAR
STARTCHAR pi
ENCODING -1
SWIDTH 621 0
DWIDTH 6 0
BBX 6 5 0 0
BITMAP
FC
48
48
48
48
ENDCHAR
STARTCHAR Euro
ENCODING -1
SWIDTH 611 0
DWIDTH 6 0
BBX 5 7 1 0
BITMAP
78
40
F0
F0
40
40
38
ENDCHAR
STARTCHAR estimated
ENCODING -1
SWIDTH 844 0
DWIDTH 8 0
BBX 8 7 0 0
BITMAP
3C
42
41
C1
FE
40
3C
ENDCHAR
STARTCHAR partialdiff
ENCODING -1
SWIDTH 592 0
DWIDTH 6 0
BBX 5 8 0 0
BITMAP
20
58
08
28
58
88
88
70
ENDCHAR
STARTCHAR product
ENCODING -1
SWIDTH 758 0
DWIDTH 8 0
BBX 7 8 0 -1
BITMAP
FE
44
44
44
44
44
44
44
ENDCHAR
STARTCHAR summation
ENCODING -1
SWIDTH 601 0
DWIDTH 6 0
BBX 6 8 0 -1
BITMAP
FC
40
20
10
10
20
40
FC
ENDCHAR
STARTCHAR uni2219
ENCODING -1
SWIDTH 305 0
DWIDTH 3 0
BBX 1 1 1 2
BITMAP
80
ENDCHAR
STARTCHAR radical
ENCODING -1
SWIDTH 612 0
DWIDTH 6 0
BBX 5 9 1 -1
BITMAP
08
08
08
10
90
90
60
60
20
ENDCHAR
STARTCHAR infinity
ENCODING -1
SWIDTH 810 0
DWIDTH 8 0
BBX 6 2 1 1
BITMAP
FC
EC
ENDCHAR
STARTCHAR integral
ENCODING -1
SWIDTH 373 0
DWIDTH 4 0
BBX 3 10 0 -2
BITMAP
20
40
40
40
40
40
40
40
40
80
ENDCHAR
STARTCHAR approxequal
ENCODING -1
SWIDTH 605 0
DWIDTH 6 0
BBX 5 3 0 1
BITMAP
78
00
F8
ENDCHAR
STARTCHAR notequal
ENCODING -1
SWIDTH 605 0
DWIDTH 6 0
BBX 4 4 1 1
BITMAP
20
F0
40
F0
ENDCHAR
STARTCHAR lessequal
ENCODING -1
SWIDTH 605 0
DWIDTH 6 0
BBX 4 6 1 0
BITMAP
10
60
80
40
30
F0
ENDCHAR
STARTCHAR greaterequal
ENCODING -1
SWIDTH 605 0
DWIDTH 6 0
BBX 4 6 1 0
BITMAP
80
60
10
20
C0
F0
ENDCHAR
STARTCHAR lozenge
ENCODING -1
SWIDTH 613 0
DWIDTH 6 0
BBX 4 7 1 0
BITMAP
60
60
90
90
90
90
60
ENDCHAR
STARTCHAR uni02C9
ENCODING -1
SWIDTH 222 0
DWIDTH 2 0
BBX 2 1 0 6
BITMAP
C0
ENDCHAR
STARTCHAR uni03A9
ENCODING -1
SWIDTH 795 0
DWIDTH 8 0
BBX 6 7 1 0
BITMAP
78
84
84
84
84
84
CC
ENDCHAR
STARTCHAR afii61289
ENCODING -1
SWIDTH 528 0
DWIDTH 5 0
BBX 5 8 0 0
BITMAP
20
50
50
50
60
40
C0
38
ENDCHAR
STARTCHAR uni03BC
ENCODING -1
SWIDTH 556 0
DWIDTH 6 0
BBX 4 8 1 -2
BITMAP
90
90
90
90
90
F0
80
80
ENDCHAR
STARTCHAR uni2215
ENCODING -1
SWIDTH 167 0
DWIDTH 2 0
BBX 5 7 -2 0
BITMAP
08
08
10
20
20
40
80
ENDCHAR
ENDFONT
